<mxfile host="app.diagrams.net" modified="2023-05-01T18:11:59.284Z" agent="Mozilla/5.0 (Windows NT 10.0; Win64; x64; rv:109.0) Gecko/20100101 Firefox/113.0" etag="CYf1aAY1gmGhxbOqjN_r" version="21.2.3" type="github">
  <diagram id="6a731a19-8d31-9384-78a2-239565b7b9f0" name="Page-1">
    <mxGraphModel dx="1035" dy="2207" grid="1" gridSize="10" guides="1" tooltips="1" connect="1" arrows="1" fold="1" page="1" pageScale="1" pageWidth="2336" pageHeight="1654" background="none" math="0" shadow="0">
      <root>
        <mxCell id="0" />
        <mxCell id="1" parent="0" />
        <mxCell id="56OpiAGq0yWvSMqa_17q-1784" value="" style="edgeStyle=orthogonalEdgeStyle;rounded=0;orthogonalLoop=1;jettySize=auto;html=1;" parent="1" source="1769" target="56OpiAGq0yWvSMqa_17q-1783" edge="1">
          <mxGeometry relative="1" as="geometry" />
        </mxCell>
        <mxCell id="56OpiAGq0yWvSMqa_17q-1806" style="edgeStyle=orthogonalEdgeStyle;rounded=0;orthogonalLoop=1;jettySize=auto;html=1;" parent="1" source="1769" target="56OpiAGq0yWvSMqa_17q-1805" edge="1">
          <mxGeometry relative="1" as="geometry" />
        </mxCell>
        <mxCell id="Hqznb2P4-b-RLh4J3bwj-1784" style="edgeStyle=orthogonalEdgeStyle;rounded=0;orthogonalLoop=1;jettySize=auto;html=1;" edge="1" parent="1" source="1769" target="Hqznb2P4-b-RLh4J3bwj-1783">
          <mxGeometry relative="1" as="geometry" />
        </mxCell>
        <mxCell id="1769" value="&lt;font style=&quot;font-size: 39px;&quot;&gt;Board&lt;/font&gt;" style="rounded=1;whiteSpace=wrap;html=1;shadow=0;labelBackgroundColor=none;strokeColor=#3700CC;strokeWidth=3;fillColor=#6a00ff;fontFamily=Helvetica;fontSize=14;align=center;spacing=5;arcSize=7;perimeterSpacing=2;fontColor=#ffffff;" parent="1" vertex="1">
          <mxGeometry x="120" y="40" width="150" height="60" as="geometry" />
        </mxCell>
        <mxCell id="56OpiAGq0yWvSMqa_17q-1799" value="" style="edgeStyle=orthogonalEdgeStyle;rounded=0;orthogonalLoop=1;jettySize=auto;html=1;" parent="1" source="56OpiAGq0yWvSMqa_17q-1783" target="56OpiAGq0yWvSMqa_17q-1798" edge="1">
          <mxGeometry relative="1" as="geometry" />
        </mxCell>
        <mxCell id="56OpiAGq0yWvSMqa_17q-1801" value="" style="edgeStyle=orthogonalEdgeStyle;rounded=0;orthogonalLoop=1;jettySize=auto;html=1;" parent="1" source="56OpiAGq0yWvSMqa_17q-1783" target="56OpiAGq0yWvSMqa_17q-1800" edge="1">
          <mxGeometry relative="1" as="geometry" />
        </mxCell>
        <mxCell id="56OpiAGq0yWvSMqa_17q-1783" value="&lt;font style=&quot;font-size: 20px;&quot;&gt;Square Grid&lt;/font&gt;" style="whiteSpace=wrap;html=1;fontSize=14;fillColor=#76608a;strokeColor=#432D57;fontColor=#ffffff;rounded=1;shadow=0;labelBackgroundColor=none;strokeWidth=3;spacing=5;arcSize=7;" parent="1" vertex="1">
          <mxGeometry x="135" y="170" width="120" height="60" as="geometry" />
        </mxCell>
        <mxCell id="56OpiAGq0yWvSMqa_17q-1798" value="&lt;div&gt;Size?&lt;/div&gt;&lt;div&gt;Lets say 10 x 10&lt;br&gt;&lt;/div&gt;" style="whiteSpace=wrap;html=1;fontSize=14;fillColor=#e1d5e7;strokeColor=#9673a6;rounded=1;shadow=0;labelBackgroundColor=none;strokeWidth=3;spacing=5;arcSize=7;" parent="1" vertex="1">
          <mxGeometry x="290" y="175" width="75" height="50" as="geometry" />
        </mxCell>
        <mxCell id="56OpiAGq0yWvSMqa_17q-1803" value="" style="edgeStyle=orthogonalEdgeStyle;rounded=0;orthogonalLoop=1;jettySize=auto;html=1;" parent="1" source="56OpiAGq0yWvSMqa_17q-1800" target="56OpiAGq0yWvSMqa_17q-1802" edge="1">
          <mxGeometry relative="1" as="geometry">
            <Array as="points">
              <mxPoint x="330" y="340" />
              <mxPoint x="330" y="275" />
            </Array>
          </mxGeometry>
        </mxCell>
        <mxCell id="56OpiAGq0yWvSMqa_17q-1830" value="" style="edgeStyle=orthogonalEdgeStyle;rounded=0;orthogonalLoop=1;jettySize=auto;html=1;" parent="1" source="56OpiAGq0yWvSMqa_17q-1800" target="56OpiAGq0yWvSMqa_17q-1829" edge="1">
          <mxGeometry relative="1" as="geometry" />
        </mxCell>
        <mxCell id="56OpiAGq0yWvSMqa_17q-1800" value="&lt;font style=&quot;font-size: 20px;&quot;&gt;Each tile can be of 4 types&lt;/font&gt;" style="whiteSpace=wrap;html=1;fontSize=14;fillColor=#76608a;strokeColor=#432D57;fontColor=#ffffff;rounded=1;shadow=0;labelBackgroundColor=none;strokeWidth=3;spacing=5;arcSize=7;" parent="1" vertex="1">
          <mxGeometry x="132.5" y="310" width="125" height="60" as="geometry" />
        </mxCell>
        <mxCell id="56OpiAGq0yWvSMqa_17q-1814" value="" style="edgeStyle=orthogonalEdgeStyle;rounded=0;orthogonalLoop=1;jettySize=auto;html=1;" parent="1" source="56OpiAGq0yWvSMqa_17q-1802" target="56OpiAGq0yWvSMqa_17q-1813" edge="1">
          <mxGeometry relative="1" as="geometry" />
        </mxCell>
        <mxCell id="56OpiAGq0yWvSMqa_17q-1802" value="&lt;font style=&quot;font-size: 20px;&quot;&gt;Grass&lt;/font&gt;" style="whiteSpace=wrap;html=1;fontSize=20;fillColor=#647687;strokeColor=#314354;fontColor=#ffffff;rounded=1;shadow=0;labelBackgroundColor=none;strokeWidth=3;spacing=5;arcSize=7;" parent="1" vertex="1">
          <mxGeometry x="390" y="250" width="85" height="50" as="geometry" />
        </mxCell>
        <mxCell id="56OpiAGq0yWvSMqa_17q-1820" style="edgeStyle=orthogonalEdgeStyle;rounded=0;orthogonalLoop=1;jettySize=auto;html=1;" parent="1" source="56OpiAGq0yWvSMqa_17q-1804" target="56OpiAGq0yWvSMqa_17q-1816" edge="1">
          <mxGeometry relative="1" as="geometry" />
        </mxCell>
        <mxCell id="56OpiAGq0yWvSMqa_17q-1804" value="Mountain" style="whiteSpace=wrap;html=1;fontSize=20;fillColor=#647687;strokeColor=#314354;fontColor=#ffffff;rounded=1;shadow=0;labelBackgroundColor=none;strokeWidth=3;spacing=5;arcSize=7;" parent="1" vertex="1">
          <mxGeometry x="390" y="380" width="85" height="50" as="geometry" />
        </mxCell>
        <mxCell id="56OpiAGq0yWvSMqa_17q-1828" value="" style="edgeStyle=orthogonalEdgeStyle;rounded=0;orthogonalLoop=1;jettySize=auto;html=1;" parent="1" source="56OpiAGq0yWvSMqa_17q-1805" target="56OpiAGq0yWvSMqa_17q-1827" edge="1">
          <mxGeometry relative="1" as="geometry" />
        </mxCell>
        <mxCell id="56OpiAGq0yWvSMqa_17q-1805" value="Randomly generated content" style="whiteSpace=wrap;html=1;fontSize=14;fillColor=#e1d5e7;strokeColor=#9673a6;rounded=1;shadow=0;labelBackgroundColor=none;strokeWidth=3;spacing=5;arcSize=7;" parent="1" vertex="1">
          <mxGeometry x="290" y="45" width="75" height="50" as="geometry" />
        </mxCell>
        <mxCell id="56OpiAGq0yWvSMqa_17q-1819" style="edgeStyle=orthogonalEdgeStyle;rounded=0;orthogonalLoop=1;jettySize=auto;html=1;" parent="1" source="56OpiAGq0yWvSMqa_17q-1807" target="56OpiAGq0yWvSMqa_17q-1815" edge="1">
          <mxGeometry relative="1" as="geometry" />
        </mxCell>
        <mxCell id="56OpiAGq0yWvSMqa_17q-1807" value="Forest" style="whiteSpace=wrap;html=1;fontSize=20;fillColor=#647687;strokeColor=#314354;fontColor=#ffffff;rounded=1;shadow=0;labelBackgroundColor=none;strokeWidth=3;spacing=5;arcSize=7;" parent="1" vertex="1">
          <mxGeometry x="390" y="315" width="85" height="50" as="geometry" />
        </mxCell>
        <mxCell id="56OpiAGq0yWvSMqa_17q-1822" style="edgeStyle=orthogonalEdgeStyle;rounded=0;orthogonalLoop=1;jettySize=auto;html=1;" parent="1" target="56OpiAGq0yWvSMqa_17q-1817" edge="1">
          <mxGeometry relative="1" as="geometry">
            <mxPoint x="480" y="464" as="sourcePoint" />
            <mxPoint x="537.5" y="465.5" as="targetPoint" />
            <Array as="points">
              <mxPoint x="520" y="464" />
              <mxPoint x="520" y="464" />
            </Array>
          </mxGeometry>
        </mxCell>
        <mxCell id="56OpiAGq0yWvSMqa_17q-1808" value="Water" style="whiteSpace=wrap;html=1;fontSize=20;fillColor=#647687;strokeColor=#314354;fontColor=#ffffff;rounded=1;shadow=0;labelBackgroundColor=none;strokeWidth=3;spacing=5;arcSize=7;" parent="1" vertex="1">
          <mxGeometry x="390" y="440" width="90" height="50" as="geometry" />
        </mxCell>
        <mxCell id="56OpiAGq0yWvSMqa_17q-1809" value="" style="edgeStyle=orthogonalEdgeStyle;rounded=0;orthogonalLoop=1;jettySize=auto;html=1;" parent="1" target="56OpiAGq0yWvSMqa_17q-1807" edge="1">
          <mxGeometry relative="1" as="geometry">
            <mxPoint x="310" y="340" as="sourcePoint" />
            <mxPoint x="380" y="300" as="targetPoint" />
          </mxGeometry>
        </mxCell>
        <mxCell id="56OpiAGq0yWvSMqa_17q-1810" value="" style="edgeStyle=orthogonalEdgeStyle;rounded=0;orthogonalLoop=1;jettySize=auto;html=1;exitX=1;exitY=0.5;exitDx=0;exitDy=0;" parent="1" source="56OpiAGq0yWvSMqa_17q-1800" target="56OpiAGq0yWvSMqa_17q-1804" edge="1">
          <mxGeometry relative="1" as="geometry">
            <mxPoint x="275" y="360" as="sourcePoint" />
            <mxPoint x="385" y="305" as="targetPoint" />
            <Array as="points">
              <mxPoint x="330" y="340" />
              <mxPoint x="330" y="400" />
            </Array>
          </mxGeometry>
        </mxCell>
        <mxCell id="56OpiAGq0yWvSMqa_17q-1812" value="" style="edgeStyle=orthogonalEdgeStyle;rounded=0;orthogonalLoop=1;jettySize=auto;html=1;exitX=1;exitY=0.5;exitDx=0;exitDy=0;" parent="1" source="56OpiAGq0yWvSMqa_17q-1800" target="56OpiAGq0yWvSMqa_17q-1808" edge="1">
          <mxGeometry relative="1" as="geometry">
            <mxPoint x="265" y="350" as="sourcePoint" />
            <mxPoint x="400" y="410" as="targetPoint" />
            <Array as="points">
              <mxPoint x="330" y="340" />
              <mxPoint x="330" y="460" />
            </Array>
          </mxGeometry>
        </mxCell>
        <mxCell id="56OpiAGq0yWvSMqa_17q-1813" value="&lt;div&gt;Cost of Movement: 1&lt;/div&gt;&lt;div&gt;Defense: 0&lt;br&gt;&lt;/div&gt;" style="whiteSpace=wrap;html=1;fontSize=14;fillColor=#e1d5e7;strokeColor=#9673a6;fontColor=default;rounded=1;shadow=0;labelBackgroundColor=none;strokeWidth=3;spacing=5;arcSize=7;" parent="1" vertex="1">
          <mxGeometry x="537.5" y="247.5" width="162.5" height="55" as="geometry" />
        </mxCell>
        <mxCell id="56OpiAGq0yWvSMqa_17q-1815" value="&lt;div&gt;Cost of Movement: 2&lt;br&gt;&lt;/div&gt;&lt;div&gt;Defense: 1&lt;br&gt;&lt;/div&gt;" style="whiteSpace=wrap;html=1;fontSize=14;fillColor=#e1d5e7;strokeColor=#9673a6;fontColor=default;rounded=1;shadow=0;labelBackgroundColor=none;strokeWidth=3;spacing=5;arcSize=7;" parent="1" vertex="1">
          <mxGeometry x="537.5" y="312.5" width="162.5" height="55" as="geometry" />
        </mxCell>
        <mxCell id="56OpiAGq0yWvSMqa_17q-1816" value="&lt;div&gt;Cost of Movement: 2&lt;br&gt;&lt;/div&gt;&lt;div&gt;Defense: 2&lt;/div&gt;&lt;div&gt;Range: 1&lt;br&gt;&lt;/div&gt;" style="whiteSpace=wrap;html=1;fontSize=14;fillColor=#e1d5e7;strokeColor=#9673a6;fontColor=default;rounded=1;shadow=0;labelBackgroundColor=none;strokeWidth=3;spacing=5;arcSize=7;" parent="1" vertex="1">
          <mxGeometry x="537.5" y="377.5" width="162.5" height="55" as="geometry" />
        </mxCell>
        <mxCell id="56OpiAGq0yWvSMqa_17q-1817" value="Cant move here" style="whiteSpace=wrap;html=1;fontSize=14;fillColor=#e1d5e7;strokeColor=#9673a6;fontColor=default;rounded=1;shadow=0;labelBackgroundColor=none;strokeWidth=3;spacing=5;arcSize=7;" parent="1" vertex="1">
          <mxGeometry x="537.5" y="439" width="162.5" height="55" as="geometry" />
        </mxCell>
        <mxCell id="56OpiAGq0yWvSMqa_17q-1824" value="" style="shape=curlyBracket;whiteSpace=wrap;html=1;rounded=1;flipH=1;labelPosition=right;verticalLabelPosition=middle;align=left;verticalAlign=middle;rotation=-90;" parent="1" vertex="1">
          <mxGeometry x="536.25" y="63.75" width="20" height="312.5" as="geometry" />
        </mxCell>
        <mxCell id="56OpiAGq0yWvSMqa_17q-1825" value="" style="endArrow=classic;html=1;rounded=0;exitX=0.1;exitY=0.5;exitDx=0;exitDy=0;exitPerimeter=0;" parent="1" source="56OpiAGq0yWvSMqa_17q-1824" target="56OpiAGq0yWvSMqa_17q-1827" edge="1">
          <mxGeometry width="50" height="50" relative="1" as="geometry">
            <mxPoint x="550" y="210" as="sourcePoint" />
            <mxPoint x="546" y="130" as="targetPoint" />
          </mxGeometry>
        </mxCell>
        <mxCell id="56OpiAGq0yWvSMqa_17q-1827" value="Specific rules on how comon these are, and how thay are distributed" style="whiteSpace=wrap;html=1;fontSize=14;fillColor=#e1d5e7;strokeColor=#9673a6;rounded=1;shadow=0;labelBackgroundColor=none;strokeWidth=3;spacing=5;arcSize=7;" parent="1" vertex="1">
          <mxGeometry x="468.75" y="30" width="155" height="80" as="geometry" />
        </mxCell>
        <mxCell id="56OpiAGq0yWvSMqa_17q-1832" value="" style="edgeStyle=orthogonalEdgeStyle;rounded=0;orthogonalLoop=1;jettySize=auto;html=1;" parent="1" source="56OpiAGq0yWvSMqa_17q-1829" target="56OpiAGq0yWvSMqa_17q-1831" edge="1">
          <mxGeometry relative="1" as="geometry" />
        </mxCell>
        <mxCell id="56OpiAGq0yWvSMqa_17q-1834" value="" style="edgeStyle=orthogonalEdgeStyle;rounded=0;orthogonalLoop=1;jettySize=auto;html=1;" parent="1" source="56OpiAGq0yWvSMqa_17q-1829" target="56OpiAGq0yWvSMqa_17q-1833" edge="1">
          <mxGeometry relative="1" as="geometry">
            <Array as="points">
              <mxPoint x="310" y="600" />
              <mxPoint x="310" y="665" />
            </Array>
          </mxGeometry>
        </mxCell>
        <mxCell id="56OpiAGq0yWvSMqa_17q-1829" value="Tiles can have 1 Resource" style="whiteSpace=wrap;html=1;fontSize=20;fillColor=#76608a;strokeColor=#432D57;fontColor=#ffffff;rounded=1;shadow=0;labelBackgroundColor=none;strokeWidth=3;spacing=5;arcSize=7;" parent="1" vertex="1">
          <mxGeometry x="135" y="560" width="120" height="80" as="geometry" />
        </mxCell>
        <mxCell id="56OpiAGq0yWvSMqa_17q-1831" value="Certain Resources can only appear on certain terrain" style="whiteSpace=wrap;html=1;fontSize=14;fillColor=#e1d5e7;strokeColor=#9673a6;fontColor=default;rounded=1;shadow=0;labelBackgroundColor=none;strokeWidth=3;spacing=5;arcSize=7;" parent="1" vertex="1">
          <mxGeometry x="365" y="540" width="135" height="70" as="geometry" />
        </mxCell>
        <mxCell id="56OpiAGq0yWvSMqa_17q-1833" value="Players Adjacent to Resources gain a Benefit or Currency" style="whiteSpace=wrap;html=1;fontSize=14;fillColor=#e1d5e7;strokeColor=#9673a6;fontColor=default;rounded=1;shadow=0;labelBackgroundColor=none;strokeWidth=3;spacing=5;arcSize=7;" parent="1" vertex="1">
          <mxGeometry x="360" y="630" width="140" height="70" as="geometry" />
        </mxCell>
        <mxCell id="56OpiAGq0yWvSMqa_17q-1835" value="" style="shape=curlyBracket;whiteSpace=wrap;html=1;rounded=1;flipH=1;labelPosition=right;verticalLabelPosition=middle;align=left;verticalAlign=middle;rotation=90;" parent="1" vertex="1">
          <mxGeometry x="423" y="440" width="20" height="120" as="geometry" />
        </mxCell>
        <mxCell id="56OpiAGq0yWvSMqa_17q-1836" value="" style="endArrow=classic;html=1;rounded=0;" parent="1" source="56OpiAGq0yWvSMqa_17q-1831" edge="1">
          <mxGeometry width="50" height="50" relative="1" as="geometry">
            <mxPoint x="440" y="550" as="sourcePoint" />
            <mxPoint x="433" y="510" as="targetPoint" />
          </mxGeometry>
        </mxCell>
        <mxCell id="zRMEfGAFtVgcLlLTr7C3-1771" value="" style="edgeStyle=orthogonalEdgeStyle;rounded=0;orthogonalLoop=1;jettySize=auto;html=1;" parent="1" source="zRMEfGAFtVgcLlLTr7C3-1769" target="zRMEfGAFtVgcLlLTr7C3-1770" edge="1">
          <mxGeometry relative="1" as="geometry" />
        </mxCell>
        <mxCell id="mr3HviEGh8DKeblQNFBV-1770" value="" style="edgeStyle=orthogonalEdgeStyle;rounded=0;orthogonalLoop=1;jettySize=auto;html=1;" parent="1" source="zRMEfGAFtVgcLlLTr7C3-1769" target="mr3HviEGh8DKeblQNFBV-1769" edge="1">
          <mxGeometry relative="1" as="geometry" />
        </mxCell>
        <mxCell id="zRMEfGAFtVgcLlLTr7C3-1769" value="Player Avatar" style="rounded=1;whiteSpace=wrap;html=1;shadow=0;labelBackgroundColor=none;strokeColor=#3700CC;strokeWidth=3;fillColor=#6a00ff;fontFamily=Helvetica;fontSize=39;align=center;spacing=5;arcSize=7;perimeterSpacing=2;fontColor=#ffffff;" parent="1" vertex="1">
          <mxGeometry x="850" y="30" width="150" height="90" as="geometry" />
        </mxCell>
        <mxCell id="zRMEfGAFtVgcLlLTr7C3-1773" value="" style="edgeStyle=orthogonalEdgeStyle;rounded=0;orthogonalLoop=1;jettySize=auto;html=1;" parent="1" source="zRMEfGAFtVgcLlLTr7C3-1770" target="zRMEfGAFtVgcLlLTr7C3-1772" edge="1">
          <mxGeometry relative="1" as="geometry" />
        </mxCell>
        <mxCell id="dpFyPkBLVcSQui3WPcO0-1770" value="" style="edgeStyle=orthogonalEdgeStyle;rounded=0;orthogonalLoop=1;jettySize=auto;html=1;" parent="1" source="zRMEfGAFtVgcLlLTr7C3-1770" target="dpFyPkBLVcSQui3WPcO0-1769" edge="1">
          <mxGeometry relative="1" as="geometry" />
        </mxCell>
        <mxCell id="zRMEfGAFtVgcLlLTr7C3-1770" value="Can move once per turn" style="whiteSpace=wrap;html=1;fontSize=20;fillColor=#76608a;strokeColor=#432D57;fontColor=#ffffff;rounded=1;shadow=0;labelBackgroundColor=none;strokeWidth=3;spacing=5;arcSize=7;" parent="1" vertex="1">
          <mxGeometry x="865" y="175" width="120" height="75" as="geometry" />
        </mxCell>
        <mxCell id="zRMEfGAFtVgcLlLTr7C3-1772" value="Max distance determined by Move Points (3) and terrain cost of Movement" style="whiteSpace=wrap;html=1;fontSize=14;fillColor=#e1d5e7;strokeColor=#9673a6;fontColor=default;rounded=1;shadow=0;labelBackgroundColor=none;strokeWidth=3;spacing=5;arcSize=7;" parent="1" vertex="1">
          <mxGeometry x="1020" y="182.5" width="185" height="60" as="geometry" />
        </mxCell>
        <mxCell id="Hqznb2P4-b-RLh4J3bwj-1808" style="edgeStyle=orthogonalEdgeStyle;rounded=0;orthogonalLoop=1;jettySize=auto;html=1;" edge="1" parent="1" source="dpFyPkBLVcSQui3WPcO0-1769" target="Hqznb2P4-b-RLh4J3bwj-1807">
          <mxGeometry relative="1" as="geometry" />
        </mxCell>
        <mxCell id="dpFyPkBLVcSQui3WPcO0-1769" value="Moving the Avatar ends the Player Turn" style="whiteSpace=wrap;html=1;fontSize=20;fillColor=#76608a;strokeColor=#432D57;fontColor=#ffffff;rounded=1;shadow=0;labelBackgroundColor=none;strokeWidth=3;spacing=5;arcSize=7;" parent="1" vertex="1">
          <mxGeometry x="865" y="300" width="120" height="102.5" as="geometry" />
        </mxCell>
        <mxCell id="Hqznb2P4-b-RLh4J3bwj-1769" style="edgeStyle=orthogonalEdgeStyle;rounded=0;orthogonalLoop=1;jettySize=auto;html=1;" edge="1" parent="1" source="mr3HviEGh8DKeblQNFBV-1769" target="6rqUbxWy_vLYyO7bUJhv-1769">
          <mxGeometry relative="1" as="geometry">
            <Array as="points">
              <mxPoint x="1220" y="75" />
              <mxPoint x="1220" y="25" />
            </Array>
          </mxGeometry>
        </mxCell>
        <mxCell id="Hqznb2P4-b-RLh4J3bwj-1770" style="edgeStyle=orthogonalEdgeStyle;rounded=0;orthogonalLoop=1;jettySize=auto;html=1;" edge="1" parent="1" source="mr3HviEGh8DKeblQNFBV-1769" target="6rqUbxWy_vLYyO7bUJhv-1770">
          <mxGeometry relative="1" as="geometry">
            <Array as="points">
              <mxPoint x="1230" y="75" />
              <mxPoint x="1230" y="75" />
            </Array>
          </mxGeometry>
        </mxCell>
        <mxCell id="Hqznb2P4-b-RLh4J3bwj-1771" style="edgeStyle=orthogonalEdgeStyle;rounded=0;orthogonalLoop=1;jettySize=auto;html=1;" edge="1" parent="1" target="6rqUbxWy_vLYyO7bUJhv-1771">
          <mxGeometry relative="1" as="geometry">
            <mxPoint x="1190" y="75" as="sourcePoint" />
            <Array as="points">
              <mxPoint x="1220" y="75" />
              <mxPoint x="1220" y="130" />
            </Array>
          </mxGeometry>
        </mxCell>
        <mxCell id="Hqznb2P4-b-RLh4J3bwj-1776" style="edgeStyle=orthogonalEdgeStyle;rounded=0;orthogonalLoop=1;jettySize=auto;html=1;entryX=0;entryY=0.5;entryDx=0;entryDy=0;" edge="1" parent="1" source="mr3HviEGh8DKeblQNFBV-1769" target="Hqznb2P4-b-RLh4J3bwj-1772">
          <mxGeometry relative="1" as="geometry">
            <Array as="points">
              <mxPoint x="1220" y="75" />
              <mxPoint x="1220" y="190" />
            </Array>
          </mxGeometry>
        </mxCell>
        <mxCell id="Hqznb2P4-b-RLh4J3bwj-1778" style="edgeStyle=orthogonalEdgeStyle;rounded=0;orthogonalLoop=1;jettySize=auto;html=1;entryX=0;entryY=0.5;entryDx=0;entryDy=0;" edge="1" parent="1" source="mr3HviEGh8DKeblQNFBV-1769" target="Hqznb2P4-b-RLh4J3bwj-1777">
          <mxGeometry relative="1" as="geometry">
            <Array as="points">
              <mxPoint x="1220" y="75" />
              <mxPoint x="1220" y="247" />
            </Array>
          </mxGeometry>
        </mxCell>
        <mxCell id="Hqznb2P4-b-RLh4J3bwj-1786" style="edgeStyle=orthogonalEdgeStyle;rounded=0;orthogonalLoop=1;jettySize=auto;html=1;" edge="1" parent="1" source="mr3HviEGh8DKeblQNFBV-1769" target="Hqznb2P4-b-RLh4J3bwj-1785">
          <mxGeometry relative="1" as="geometry">
            <Array as="points">
              <mxPoint x="1220" y="75" />
              <mxPoint x="1220" y="305" />
            </Array>
          </mxGeometry>
        </mxCell>
        <mxCell id="mr3HviEGh8DKeblQNFBV-1769" value="Has Stats" style="whiteSpace=wrap;html=1;fontSize=20;fillColor=#76608a;strokeColor=#432D57;fontColor=#ffffff;rounded=1;shadow=0;labelBackgroundColor=none;strokeWidth=3;spacing=5;arcSize=7;" parent="1" vertex="1">
          <mxGeometry x="1052.5" y="45" width="120" height="60" as="geometry" />
        </mxCell>
        <mxCell id="Hqznb2P4-b-RLh4J3bwj-1804" style="edgeStyle=orthogonalEdgeStyle;rounded=0;orthogonalLoop=1;jettySize=auto;html=1;" edge="1" parent="1" source="6rqUbxWy_vLYyO7bUJhv-1769" target="Hqznb2P4-b-RLh4J3bwj-1788">
          <mxGeometry relative="1" as="geometry" />
        </mxCell>
        <mxCell id="6rqUbxWy_vLYyO7bUJhv-1769" value="Health" style="whiteSpace=wrap;html=1;fontSize=20;fillColor=#647687;strokeColor=#314354;fontColor=#ffffff;rounded=1;shadow=0;labelBackgroundColor=none;strokeWidth=3;spacing=5;arcSize=7;" parent="1" vertex="1">
          <mxGeometry x="1270" width="85" height="50" as="geometry" />
        </mxCell>
        <mxCell id="Hqznb2P4-b-RLh4J3bwj-1803" style="edgeStyle=orthogonalEdgeStyle;rounded=0;orthogonalLoop=1;jettySize=auto;html=1;" edge="1" parent="1" source="6rqUbxWy_vLYyO7bUJhv-1770" target="Hqznb2P4-b-RLh4J3bwj-1791">
          <mxGeometry relative="1" as="geometry" />
        </mxCell>
        <mxCell id="6rqUbxWy_vLYyO7bUJhv-1770" value="Move Points" style="whiteSpace=wrap;html=1;fontSize=20;fillColor=#647687;strokeColor=#314354;fontColor=#ffffff;rounded=1;shadow=0;labelBackgroundColor=none;strokeWidth=3;spacing=5;arcSize=7;" parent="1" vertex="1">
          <mxGeometry x="1270" y="55" width="85" height="50" as="geometry" />
        </mxCell>
        <mxCell id="Hqznb2P4-b-RLh4J3bwj-1802" style="edgeStyle=orthogonalEdgeStyle;rounded=0;orthogonalLoop=1;jettySize=auto;html=1;entryX=0;entryY=0.5;entryDx=0;entryDy=0;" edge="1" parent="1" source="6rqUbxWy_vLYyO7bUJhv-1771" target="Hqznb2P4-b-RLh4J3bwj-1792">
          <mxGeometry relative="1" as="geometry" />
        </mxCell>
        <mxCell id="6rqUbxWy_vLYyO7bUJhv-1771" value="Damage" style="whiteSpace=wrap;html=1;fontSize=20;fillColor=#647687;strokeColor=#314354;fontColor=#ffffff;rounded=1;shadow=0;labelBackgroundColor=none;strokeWidth=3;spacing=5;arcSize=7;" parent="1" vertex="1">
          <mxGeometry x="1270" y="110" width="85" height="50" as="geometry" />
        </mxCell>
        <mxCell id="Hqznb2P4-b-RLh4J3bwj-1801" style="edgeStyle=orthogonalEdgeStyle;rounded=0;orthogonalLoop=1;jettySize=auto;html=1;" edge="1" parent="1" source="Hqznb2P4-b-RLh4J3bwj-1772" target="Hqznb2P4-b-RLh4J3bwj-1793">
          <mxGeometry relative="1" as="geometry" />
        </mxCell>
        <mxCell id="Hqznb2P4-b-RLh4J3bwj-1772" value="Defence" style="whiteSpace=wrap;html=1;fontSize=20;fillColor=#647687;strokeColor=#314354;fontColor=#ffffff;rounded=1;shadow=0;labelBackgroundColor=none;strokeWidth=3;spacing=5;arcSize=7;" vertex="1" parent="1">
          <mxGeometry x="1270" y="165" width="85" height="50" as="geometry" />
        </mxCell>
        <mxCell id="Hqznb2P4-b-RLh4J3bwj-1800" style="edgeStyle=orthogonalEdgeStyle;rounded=0;orthogonalLoop=1;jettySize=auto;html=1;" edge="1" parent="1" source="Hqznb2P4-b-RLh4J3bwj-1777" target="Hqznb2P4-b-RLh4J3bwj-1794">
          <mxGeometry relative="1" as="geometry" />
        </mxCell>
        <mxCell id="Hqznb2P4-b-RLh4J3bwj-1777" value="&lt;div&gt;Attack&lt;br&gt;&lt;/div&gt;&lt;div&gt;Range&lt;/div&gt;" style="whiteSpace=wrap;html=1;fontSize=20;fillColor=#647687;strokeColor=#314354;fontColor=#ffffff;rounded=1;shadow=0;labelBackgroundColor=none;strokeWidth=3;spacing=5;arcSize=7;" vertex="1" parent="1">
          <mxGeometry x="1270" y="222" width="85" height="50" as="geometry" />
        </mxCell>
        <mxCell id="Hqznb2P4-b-RLh4J3bwj-1781" style="edgeStyle=orthogonalEdgeStyle;rounded=0;orthogonalLoop=1;jettySize=auto;html=1;" edge="1" parent="1" source="Hqznb2P4-b-RLh4J3bwj-1779" target="Hqznb2P4-b-RLh4J3bwj-1782">
          <mxGeometry relative="1" as="geometry">
            <mxPoint x="1440" y="164.5" as="targetPoint" />
          </mxGeometry>
        </mxCell>
        <mxCell id="Hqznb2P4-b-RLh4J3bwj-1779" value="" style="shape=curlyBracket;whiteSpace=wrap;html=1;rounded=1;flipH=1;labelPosition=right;verticalLabelPosition=middle;align=left;verticalAlign=middle;" vertex="1" parent="1">
          <mxGeometry x="1480" y="55" width="20" height="273" as="geometry" />
        </mxCell>
        <mxCell id="Hqznb2P4-b-RLh4J3bwj-1782" value="&lt;div&gt;Hidden Stats, used for game logic. They wont be displayed in the UI&lt;br&gt;&lt;/div&gt;&lt;div&gt;&lt;br&gt;&lt;/div&gt;&lt;div&gt;Items and Resources just say how they modify them&lt;br&gt;&lt;/div&gt;" style="whiteSpace=wrap;html=1;fontSize=14;fillColor=#e1d5e7;strokeColor=#9673a6;fontColor=default;rounded=1;shadow=0;labelBackgroundColor=none;strokeWidth=3;spacing=5;arcSize=7;" vertex="1" parent="1">
          <mxGeometry x="1540" y="81.5" width="100" height="220" as="geometry" />
        </mxCell>
        <mxCell id="Hqznb2P4-b-RLh4J3bwj-1806" value="" style="edgeStyle=orthogonalEdgeStyle;rounded=0;orthogonalLoop=1;jettySize=auto;html=1;" edge="1" parent="1" source="Hqznb2P4-b-RLh4J3bwj-1783" target="Hqznb2P4-b-RLh4J3bwj-1805">
          <mxGeometry relative="1" as="geometry" />
        </mxCell>
        <mxCell id="Hqznb2P4-b-RLh4J3bwj-1783" value="Fog of War&lt;br&gt;&lt;br&gt;(Hidden Tiles)" style="whiteSpace=wrap;html=1;fontSize=14;fillColor=#e1d5e7;strokeColor=#9673a6;rounded=1;shadow=0;labelBackgroundColor=none;strokeWidth=3;spacing=5;arcSize=7;" vertex="1" parent="1">
          <mxGeometry x="20" y="25" width="75" height="90" as="geometry" />
        </mxCell>
        <mxCell id="Hqznb2P4-b-RLh4J3bwj-1797" style="edgeStyle=orthogonalEdgeStyle;rounded=0;orthogonalLoop=1;jettySize=auto;html=1;" edge="1" parent="1" source="Hqznb2P4-b-RLh4J3bwj-1785" target="Hqznb2P4-b-RLh4J3bwj-1795">
          <mxGeometry relative="1" as="geometry" />
        </mxCell>
        <mxCell id="Hqznb2P4-b-RLh4J3bwj-1785" value="Extra View Range" style="whiteSpace=wrap;html=1;fontSize=20;fillColor=#647687;strokeColor=#314354;fontColor=#ffffff;rounded=1;shadow=0;labelBackgroundColor=none;strokeWidth=3;spacing=5;arcSize=7;" vertex="1" parent="1">
          <mxGeometry x="1270" y="280" width="85" height="70" as="geometry" />
        </mxCell>
        <mxCell id="Hqznb2P4-b-RLh4J3bwj-1788" value="7" style="ellipse;whiteSpace=wrap;html=1;aspect=fixed;fillColor=#f8cecc;strokeColor=#b85450;fontSize=18;" vertex="1" parent="1">
          <mxGeometry x="1390" y="5" width="40" height="40" as="geometry" />
        </mxCell>
        <mxCell id="Hqznb2P4-b-RLh4J3bwj-1791" value="3" style="ellipse;whiteSpace=wrap;html=1;aspect=fixed;fillColor=#f8cecc;strokeColor=#b85450;fontSize=18;" vertex="1" parent="1">
          <mxGeometry x="1390" y="60" width="40" height="40" as="geometry" />
        </mxCell>
        <mxCell id="Hqznb2P4-b-RLh4J3bwj-1792" value="2" style="ellipse;whiteSpace=wrap;html=1;aspect=fixed;fillColor=#f8cecc;strokeColor=#b85450;fontSize=18;" vertex="1" parent="1">
          <mxGeometry x="1390" y="115" width="40" height="40" as="geometry" />
        </mxCell>
        <mxCell id="Hqznb2P4-b-RLh4J3bwj-1793" value="0" style="ellipse;whiteSpace=wrap;html=1;aspect=fixed;fillColor=#f8cecc;strokeColor=#b85450;fontSize=18;" vertex="1" parent="1">
          <mxGeometry x="1390" y="170" width="40" height="40" as="geometry" />
        </mxCell>
        <mxCell id="Hqznb2P4-b-RLh4J3bwj-1794" value="1" style="ellipse;whiteSpace=wrap;html=1;aspect=fixed;fillColor=#f8cecc;strokeColor=#b85450;fontSize=18;" vertex="1" parent="1">
          <mxGeometry x="1390" y="227" width="40" height="40" as="geometry" />
        </mxCell>
        <mxCell id="Hqznb2P4-b-RLh4J3bwj-1795" value="0" style="ellipse;whiteSpace=wrap;html=1;aspect=fixed;fillColor=#f8cecc;strokeColor=#b85450;fontSize=18;" vertex="1" parent="1">
          <mxGeometry x="1390" y="295" width="40" height="40" as="geometry" />
        </mxCell>
        <mxCell id="Hqznb2P4-b-RLh4J3bwj-1805" value="Starting View Range is equal to the tiles you could move to" style="whiteSpace=wrap;html=1;fontSize=14;fillColor=#e1d5e7;strokeColor=#9673a6;rounded=1;shadow=0;labelBackgroundColor=none;strokeWidth=3;spacing=5;arcSize=7;" vertex="1" parent="1">
          <mxGeometry x="11.25" y="170" width="92.5" height="100" as="geometry" />
        </mxCell>
        <mxCell id="Hqznb2P4-b-RLh4J3bwj-1807" value="On each Turn End of every player, every Avatar deals damage to everything in its range" style="whiteSpace=wrap;html=1;fontSize=14;fillColor=#e1d5e7;strokeColor=#9673a6;fontColor=default;rounded=1;shadow=0;labelBackgroundColor=none;strokeWidth=3;spacing=5;arcSize=7;" vertex="1" parent="1">
          <mxGeometry x="1020" y="312.25" width="185" height="78" as="geometry" />
        </mxCell>
      </root>
    </mxGraphModel>
  </diagram>
</mxfile>
